<svg width="2222" height="1391" viewBox="0 0 2222 1391" fill="none" xmlns="http://www.w3.org/2000/svg">
<line x1="2221.7" y1="116.35" y2="116.35" stroke="#D9D9D9" stroke-width="1.3"/>
<line x1="2221.7" y1="238.55" y2="238.55" stroke="#D9D9D9" stroke-width="1.3"/>
<line x1="2221.7" y1="360.75" y2="360.75" stroke="#D9D9D9" stroke-width="1.3"/>
<line x1="2221.7" y1="482.95" y2="482.95" stroke="#D9D9D9" stroke-width="1.3"/>
<line x1="2221.7" y1="605.15" y2="605.15" stroke="#D9D9D9" stroke-width="1.3"/>
<line x1="2221.7" y1="727.35" y2="727.35" stroke="#D9D9D9" stroke-width="1.3"/>
<line x1="2221.7" y1="849.55" y2="849.55" stroke="#D9D9D9" stroke-width="1.3"/>
<line x1="2221.7" y1="971.75" y2="971.75" stroke="#D9D9D9" stroke-width="1.3"/>
<line x1="2221.7" y1="1093.95" y2="1093.95" stroke="#D9D9D9" stroke-width="1.3"/>
<line x1="2221.7" y1="1216.15" y2="1216.15" stroke="#D9D9D9" stroke-width="1.3"/>
<line x1="2221.7" y1="1338.35" y2="1338.35" stroke="#D9D9D9" stroke-width="1.3"/>
<line x1="1.19648" y1="2.84124e-08" x2="1.19642" y2="1391" stroke="#D9D9D9" stroke-width="1.3"/>
<line x1="129.896" y1="2.84124e-08" x2="129.896" y2="1391" stroke="#D9D9D9" stroke-width="1.3"/>
<line x1="258.596" y1="2.84124e-08" x2="258.596" y2="1391" stroke="#D9D9D9" stroke-width="1.3"/>
<line x1="387.296" y1="2.84124e-08" x2="387.296" y2="1391" stroke="#D9D9D9" stroke-width="1.3"/>
<line x1="515.996" y1="2.84124e-08" x2="515.996" y2="1391" stroke="#D9D9D9" stroke-width="1.3"/>
<line x1="644.697" y1="2.84124e-08" x2="644.696" y2="1391" stroke="#D9D9D9" stroke-width="1.3"/>
<line x1="773.396" y1="2.84124e-08" x2="773.396" y2="1391" stroke="#D9D9D9" stroke-width="1.3"/>
<line x1="902.097" y1="2.84124e-08" x2="902.096" y2="1391" stroke="#D9D9D9" stroke-width="1.3"/>
<line x1="1030.8" y1="2.84124e-08" x2="1030.8" y2="1391" stroke="#D9D9D9" stroke-width="1.3"/>
<line x1="1159.5" y1="2.84124e-08" x2="1159.5" y2="1391" stroke="#D9D9D9" stroke-width="1.3"/>
<line x1="1288.2" y1="2.84124e-08" x2="1288.2" y2="1391" stroke="#D9D9D9" stroke-width="1.3"/>
<line x1="1416.9" y1="2.84124e-08" x2="1416.9" y2="1391" stroke="#D9D9D9" stroke-width="1.3"/>
<line x1="1545.6" y1="2.84124e-08" x2="1545.6" y2="1391" stroke="#D9D9D9" stroke-width="1.3"/>
<line x1="1674.3" y1="2.84124e-08" x2="1674.3" y2="1391" stroke="#D9D9D9" stroke-width="1.3"/>
<line x1="1803" y1="2.84124e-08" x2="1803" y2="1391" stroke="#D9D9D9" stroke-width="1.3"/>
<line x1="1931.7" y1="2.84124e-08" x2="1931.7" y2="1391" stroke="#D9D9D9" stroke-width="1.3"/>
</svg>
